<svg width="645" height="265" viewBox="0 0 645 265" fill="none" xmlns="http://www.w3.org/2000/svg">
<g clip-path="url(#clip0_820_16)">
<path fill-rule="evenodd" clip-rule="evenodd" d="M0.00639122 237.617L166.629 -0.00561611L333.416 237.546L259.366 237.192C259.366 237.192 169.617 109.877 168.485 107.748C167.361 105.617 77.0719 237.383 77.0719 237.383L0.00639122 237.617Z" fill="#808080"/>
<path fill-rule="evenodd" clip-rule="evenodd" d="M167.489 177.04L148.603 205.673L189.367 205.647L167.489 177.04Z" fill="#808080"/>
<path fill-rule="evenodd" clip-rule="evenodd" d="M145.756 210.733L127.2 237.489L210.244 237.516L191.859 210.901" fill="#808080"/>
<path d="M424.875 214.148L422.828 214.148C422.191 213.42 421.463 212.783 420.644 212.237C419.825 211.6 418.551 211.281 416.822 211.281C415.457 211.281 413.956 211.554 412.318 212.1C410.771 212.555 408.951 213.101 406.858 213.738C404.856 214.375 402.581 214.921 400.033 215.376C397.485 215.922 394.664 216.195 391.571 216.195C385.838 216.195 380.241 215.148 374.782 213.055C369.413 210.962 364.317 207.55 359.494 202.818C355.035 198.359 351.304 193.081 348.301 186.985C345.298 180.888 343.796 173.835 343.796 165.828C343.796 159.003 345.024 152.497 347.481 146.309C349.938 140.121 353.35 134.661 357.718 129.929C362.086 125.198 367.227 121.467 373.142 118.737C379.057 115.916 385.517 114.506 392.524 114.506C395.345 114.506 397.847 114.779 400.031 115.325C402.215 115.871 404.172 116.508 405.901 117.236C407.63 117.873 409.222 118.464 410.678 119.01C412.134 119.556 413.544 119.829 414.909 119.829C416.729 119.829 418.003 119.556 418.731 119.01C419.55 118.373 420.278 117.691 420.915 116.963L422.963 116.963L422.963 144.262L421.462 144.262C420.643 140.804 419.596 137.392 418.322 134.025C417.048 130.658 415.274 127.701 412.999 125.153C410.724 122.514 407.812 120.421 404.263 118.874C400.805 117.236 396.482 116.417 391.296 116.417C386.473 116.417 382.332 117.19 378.875 118.737C375.417 120.193 372.505 122.195 370.139 124.743C367.773 127.2 365.862 130.112 364.406 133.478C363.041 136.754 361.995 140.258 361.267 143.989C360.539 147.628 360.039 151.359 359.766 155.181C359.584 158.912 359.493 162.461 359.493 165.828C359.493 175.382 360.267 183.299 361.814 189.578C363.361 195.857 365.5 200.816 368.23 204.456C371.051 208.096 374.418 210.644 378.33 212.1C382.243 213.556 386.566 214.284 391.298 214.284C397.394 214.284 402.308 213.42 406.039 211.691C409.77 209.962 412.773 207.732 415.048 205.003C417.322 202.182 419.051 199.042 420.234 195.584C421.417 192.036 422.464 188.532 423.373 185.074L424.875 185.074L424.875 214.148ZM473.15 180.707L472.877 180.707C472.695 181.89 471.194 183.073 468.373 184.256L458.136 188.35C455.224 189.533 452.995 191.217 451.448 193.401C449.901 195.494 449.128 198.133 449.128 201.317C449.128 202.682 449.264 204.093 449.537 205.549C449.81 207.005 450.311 208.324 451.039 209.507C451.767 210.599 452.768 211.509 454.042 212.237C455.407 212.965 457.136 213.329 459.229 213.329C462.231 213.329 464.643 212.692 466.463 211.418C468.374 210.144 469.784 208.552 470.694 206.641C471.695 204.73 472.332 202.683 472.605 200.499C472.969 198.224 473.151 196.176 473.151 194.356L473.15 180.707ZM497.038 212.647C495.855 213.557 494.444 214.33 492.806 214.967C491.169 215.695 489.167 216.059 486.801 216.059C482.433 216.059 479.248 215.149 477.246 213.329C475.335 211.418 474.015 208.779 473.287 205.413L473.014 205.413C472.65 206.232 472.15 207.278 471.513 208.552C470.876 209.735 469.875 210.918 468.51 212.101C467.236 213.193 465.507 214.103 463.323 214.831C461.14 215.65 458.364 216.059 454.997 216.059C451.175 216.059 448.127 215.604 445.852 214.694C443.577 213.875 441.803 212.829 440.529 211.555C439.255 210.281 438.39 208.87 437.935 207.323C437.571 205.685 437.389 204.184 437.389 202.819C437.389 199.634 438.026 197.086 439.3 195.175C440.574 193.264 442.212 191.763 444.214 190.671C446.307 189.488 448.581 188.532 451.038 187.804C453.586 187.076 456.134 186.303 458.682 185.484C461.685 184.483 464.142 183.619 466.053 182.891C468.055 182.163 469.602 181.298 470.694 180.297C471.785 179.205 472.513 177.886 472.877 176.339C473.332 174.701 473.56 172.517 473.56 169.787C473.56 167.603 473.423 165.647 473.15 163.918C472.877 162.189 472.377 160.733 471.649 159.55C470.921 158.276 469.874 157.321 468.509 156.684C467.144 156.047 465.324 155.728 463.049 155.728C460.046 155.728 457.544 156.274 455.542 157.366C453.631 158.367 452.676 160.05 452.676 162.416C452.676 163.963 452.812 165.51 453.085 167.057C453.358 168.513 453.495 169.605 453.495 170.333C453.495 171.607 453.04 172.699 452.13 173.609C451.22 174.428 449.901 174.837 448.172 174.837C445.169 174.837 443.303 174.291 442.575 173.199C441.847 172.107 441.483 170.697 441.483 168.968C441.483 166.966 441.938 165.055 442.848 163.235C443.758 161.415 445.077 159.823 446.806 158.458C448.626 157.002 450.856 155.865 453.495 155.046C456.224 154.227 459.318 153.817 462.776 153.817C466.962 153.817 470.466 154.363 473.286 155.455C476.107 156.456 478.382 157.867 480.111 159.687C481.84 161.416 483.069 163.418 483.797 165.692C484.525 167.876 484.889 170.197 484.889 172.654L484.89 206.641C484.89 209.28 485.299 211.054 486.118 211.964C486.937 212.874 488.12 213.329 489.667 213.329C490.668 213.329 491.714 213.147 492.806 212.784C493.898 212.42 494.945 211.874 495.946 211.146L497.038 212.647ZM501.33 212.238L511.84 212.238L511.838 117.646L501.328 117.646L501.328 115.735L523.577 115.736L523.578 180.98L525.08 180.98L552.242 157.503L542.55 157.503L542.55 155.592L563.707 155.593L563.707 157.504L555.518 157.503L534.225 175.794L564.391 212.238L570.26 212.238L570.26 214.149L539.549 214.149L539.549 212.238L549.24 212.238L525.08 182.891L523.578 182.891L523.579 212.238L531.086 212.238L531.086 214.149L501.33 214.149L501.33 212.238ZM612.179 180.708L611.906 180.708C611.724 181.891 610.222 183.074 607.401 184.257L597.164 188.352C594.252 189.535 592.023 191.218 590.476 193.402C588.929 195.495 588.156 198.134 588.156 201.319C588.156 202.684 588.292 204.094 588.565 205.55C588.838 207.006 589.339 208.326 590.067 209.509C590.795 210.601 591.796 211.51 593.07 212.238C594.435 212.966 596.164 213.33 598.257 213.33C601.26 213.331 603.671 212.694 605.491 211.42C607.402 210.146 608.812 208.553 609.722 206.642C610.723 204.731 611.36 202.684 611.633 200.5C611.997 198.225 612.179 196.178 612.179 194.358L612.179 180.708ZM636.066 212.648C634.883 213.558 633.473 214.332 631.835 214.969C630.197 215.697 628.195 216.061 625.829 216.061C621.461 216.061 618.276 215.151 616.274 213.331C614.363 211.42 613.044 208.781 612.316 205.414L612.043 205.414C611.679 206.233 611.178 207.279 610.541 208.553C609.904 209.736 608.903 210.919 607.538 212.102C606.264 213.194 604.535 214.104 602.352 214.832C600.168 215.651 597.392 216.06 594.025 216.06C590.203 216.06 587.155 215.605 584.88 214.695C582.605 213.876 580.831 212.83 579.557 211.556C578.283 210.282 577.418 208.871 576.963 207.324C576.599 205.687 576.417 204.185 576.417 202.82C576.417 199.635 577.054 197.087 578.328 195.176C579.602 193.265 581.24 191.764 583.242 190.672C585.335 189.489 587.61 188.534 590.066 187.806C592.614 187.078 595.162 186.304 597.71 185.485C600.713 184.484 603.17 183.62 605.081 182.892C607.083 182.164 608.63 181.3 609.722 180.299C610.814 179.207 611.542 177.887 611.905 176.34C612.36 174.702 612.588 172.518 612.588 169.789C612.588 167.605 612.451 165.648 612.178 163.919C611.905 162.19 611.405 160.734 610.677 159.551C609.949 158.277 608.902 157.322 607.537 156.685C606.172 156.048 604.352 155.729 602.077 155.729C599.075 155.729 596.572 156.275 594.57 157.367C592.659 158.368 591.704 160.052 591.704 162.418C591.704 163.965 591.84 165.512 592.113 167.058C592.386 168.514 592.523 169.606 592.523 170.334C592.523 171.608 592.068 172.7 591.158 173.61C590.248 174.429 588.929 174.839 587.2 174.839C584.197 174.839 582.331 174.293 581.603 173.201C580.875 172.109 580.511 170.698 580.511 168.969C580.511 166.967 580.966 165.056 581.876 163.236C582.786 161.417 584.106 159.824 585.834 158.459C587.654 157.003 589.884 155.866 592.523 155.047C595.253 154.228 598.346 153.818 601.804 153.818C605.99 153.819 609.494 154.365 612.315 155.457C615.135 156.458 617.41 157.868 619.139 159.688C620.868 161.417 622.097 163.419 622.825 165.694C623.553 167.878 623.917 170.198 623.917 172.655L623.918 206.642C623.918 209.281 624.327 211.056 625.146 211.966C625.965 212.876 627.148 213.331 628.695 213.331C629.696 213.331 630.743 213.149 631.835 212.785C632.926 212.421 633.973 211.875 634.974 211.147L636.066 212.648Z" fill="#808080"/>
</g>
<defs>
<clipPath id="clip0_820_16">
<rect width="645" height="265" fill="white"/>
</clipPath>
</defs>
</svg>
